<?xml version="1.0" encoding="utf-8"?>
<!-- Uploaded to: SVG Repo, www.svgrepo.com, Generator: SVG Repo Mixer Tools -->
<svg fill="#000000" version="1.1" id="Layer_1" xmlns="http://www.w3.org/2000/svg" xmlns:xlink="http://www.w3.org/1999/xlink" 
	 width="800px" height="800px" viewBox="0 0 256 253" enable-background="new 0 0 256 253" xml:space="preserve">
<path d="M70.699,198.294c-7.713,0-14.549-6.795-15.758-16.242c-0.189-1.5-0.286-3.021-0.286-4.556
	c0-19.932,16.423-37.183,40.357-45.578l-4.361,21.04c-0.46,2.215,0.898,4.456,2.744,4.513c1.023,0.032,2.021-0.637,2.556-1.719
	l13.684-27.658c5.1-0.917,10.412-1.478,15.884-1.592l-5.478,26.45c-0.413,1.985,0.678,4.084,2.299,4.458
	c1.164,0.269,2.395-0.415,3.012-1.664c0.001-0.002,14.159-28.639,14.159-28.639c5.094,0.554,10.011,1.478,14.704,2.73l-4.79,23.116
	c-0.817,3.932,3.62,6.213,5.312,2.794c0.003-0.007,10.904-22.043,10.904-22.043c21.385,8.914,35.704,25.185,35.704,43.794
	c0,1.535-0.097,3.057-0.292,4.556c-1.203,9.447-8.039,16.243-15.752,16.243L70.699,198.294z M2,61h252v8
	c-0.301,14.158-9.11,25.609-22,29.554V233h22v18H2v-18h22V98.576C11.625,94.302,2,82.678,2,69V61z M42,98.594V233h172V98.5
	c-13.228-3.738-22.954-15.728-22.954-30.154c0,10.448-9.63,31.447-31.363,31.447c-24.053,0-31.464-20.395-31.464-31.447
	c0,11.855-9.513,31.47-31.202,31.47c-24.971,0-31.727-24.992-31.727-31.47C65.29,82.895,55.402,94.966,42,98.594z M222.832,22H223V2
	H34v20L2,54h252L222.832,22z"/>
</svg>