<?xml version="1.0" encoding="iso-8859-1"?>
<!-- Uploaded to: SVG Repo, www.svgrepo.com, Generator: SVG Repo Mixer Tools -->
<svg height="800px" width="800px" version="1.1" id="Layer_1" xmlns="http://www.w3.org/2000/svg" xmlns:xlink="http://www.w3.org/1999/xlink" 
	 viewBox="0 0 512 512" xml:space="preserve">
<path style="fill:#FF6243;" d="M511.246,208.838c0-12.815-10.389-23.204-23.204-23.204c-30.25,0-56.043-19.402-65.621-46.408h3.744
	c12.815,0,23.204-10.389,23.204-23.204s-10.389-23.204-23.204-23.204c-38.384,0-69.613-31.228-69.613-69.613
	C356.551,10.389,346.162,0,333.347,0H256h-77.347c-12.815,0-23.204,10.389-23.204,23.204c0,38.384-31.228,69.613-69.613,69.613
	c-12.815,0-23.204,10.389-23.204,23.204s10.389,23.204,23.204,23.204h3.744c-9.579,27.007-35.371,46.408-65.621,46.408
	c-12.815,0-23.204,10.389-23.204,23.204c0,11.574,8.483,21.142,19.566,22.892c-2.647,7.351-4.096,15.267-4.096,23.517v30.939
	c0,30.25,19.4,56.041,46.408,65.621v136.99c0,12.815,10.389,23.204,23.204,23.204h123.756H256h46.408h123.756
	c12.815,0,23.204-10.389,23.204-23.204v-136.99c27.008-9.579,46.408-35.371,46.408-65.621v-30.939c0-8.25-1.451-16.167-4.096-23.517
	C502.762,229.98,511.246,220.412,511.246,208.838z"/>
<g>
	<path style="fill:#A90028;" d="M488.042,185.633c-30.25,0-56.043-19.402-65.621-46.408h3.744c12.815,0,23.204-10.389,23.204-23.204
		s-10.389-23.204-23.204-23.204c-38.384,0-69.613-31.228-69.613-69.613C356.551,10.389,346.162,0,333.347,0H256h-77.347
		c-12.815,0-23.204,10.389-23.204,23.204c0,38.384-31.228,69.613-69.613,69.613c-12.815,0-23.204,10.389-23.204,23.204
		s10.389,23.204,23.204,23.204h3.744c-9.579,27.007-35.371,46.408-65.621,46.408c-12.815,0-23.204,10.389-23.204,23.204
		c0,11.574,8.483,21.142,19.566,22.892c3.068-8.522,7.753-16.274,13.686-22.892c0.186-0.207,0.371-0.416,0.56-0.62
		c12.62-13.748,30.681-22.417,50.735-22.57c0.178-0.002,0.354-0.014,0.535-0.014c20.57,0,39.076,8.974,51.83,23.204
		c0.056,0.063,0.11,0.128,0.166,0.192c5.923,6.656,10.589,14.45,13.625,23.012H256h104.543c3.037-8.562,7.702-16.356,13.625-23.012
		c0.056-0.063,0.11-0.128,0.166-0.192c12.755-14.23,31.261-23.204,51.83-23.204c0.178,0,0.356,0.012,0.535,0.014
		c20.055,0.153,38.115,8.822,50.735,22.57c0.19,0.206,0.374,0.413,0.56,0.62c5.933,6.618,10.617,14.37,13.686,22.892
		c11.082-1.75,19.566-11.316,19.566-22.892C511.246,196.023,500.857,185.633,488.042,185.633z"/>
	<path style="fill:#A90028;" d="M302.408,341.836H256h-46.408c-12.815,0-23.204,10.389-23.204,23.204v100.551v23.204
		c0,12.815,10.389,23.204,23.204,23.204H256h46.408c12.815,0,23.204-10.389,23.204-23.204v-23.204V365.04
		C325.612,352.224,315.223,341.836,302.408,341.836z"/>
</g>
<path style="fill:#70001E;" d="M34.567,208.217c12.62-13.748,30.681-22.417,50.735-22.57c0.178-0.002,0.354-0.014,0.535-0.014
	c20.57,0,39.076,8.974,51.83,23.204c0.056,0.063,0.11,0.128,0.166,0.192c5.923,6.656,10.589,14.45,13.625,23.012h104.543v-92.817
	H137.649h-23.798H89.58c-9.579,27.007-35.371,46.408-65.621,46.408c-12.815,0-23.204,10.389-23.204,23.204
	c0,11.574,8.483,21.142,19.566,22.892c3.068-8.522,7.753-16.274,13.686-22.892C34.193,208.63,34.378,208.421,34.567,208.217z"/>
<path style="fill:#8B0023;" d="M511.246,208.838c0-12.815-10.389-23.204-23.204-23.204c-30.25,0-56.043-19.402-65.621-46.408
	h-24.272h-23.798H255.998v92.817h104.543c3.037-8.562,7.702-16.356,13.625-23.012c0.056-0.063,0.11-0.128,0.166-0.192
	c12.755-14.23,31.261-23.204,51.83-23.204c0.178,0,0.356,0.012,0.535,0.014c20.055,0.153,38.115,8.822,50.735,22.57
	c0.19,0.206,0.374,0.413,0.56,0.62c5.933,6.618,10.617,14.37,13.686,22.892C502.762,229.98,511.246,220.412,511.246,208.838z"/>
<path style="fill:#70001E;" d="M209.592,341.836c-12.815,0-23.204,10.389-23.204,23.204v100.551v23.204
	c0,12.815,10.389,23.204,23.204,23.204H256V341.836H209.592z"/>
<path style="fill:#ECB45C;" d="M477.434,208.217c-12.62-13.748-30.681-22.417-50.735-22.57c-0.178-0.002-0.356-0.014-0.535-0.014
	c-20.57,0-39.076,8.974-51.83,23.204c-0.056,0.063-0.11,0.128-0.165,0.192c-5.923,6.656-10.589,14.45-13.625,23.012
	c-2.576,7.263-3.991,15.07-3.991,23.204v30.939c0,30.25,19.4,56.043,46.408,65.621c7.263,2.576,15.07,3.991,23.204,3.991
	c8.134,0,15.941-1.415,23.204-3.991c27.008-9.579,46.408-35.371,46.408-65.621v-30.939c0-8.25-1.451-16.167-4.096-23.517
	c-3.068-8.522-7.753-16.274-13.686-22.892C477.809,208.63,477.625,208.421,477.434,208.217z"/>
<path style="fill:#E69629;" d="M109.04,351.806c27.008-9.579,46.408-35.371,46.408-65.621v-30.939
	c0-8.134-1.415-15.941-3.991-23.204c-3.037-8.562-7.702-16.356-13.625-23.012c-0.056-0.063-0.11-0.128-0.166-0.192
	c-12.755-14.23-31.261-23.204-51.83-23.204c-0.179,0-0.356,0.012-0.535,0.014c-20.055,0.153-38.115,8.822-50.735,22.57
	c-0.189,0.206-0.374,0.413-0.56,0.62c-5.933,6.618-10.617,14.37-13.686,22.892c-2.647,7.35-4.096,15.267-4.096,23.517v30.939
	c0,30.25,19.4,56.043,46.408,65.621c7.263,2.576,15.069,3.991,23.204,3.991S101.777,354.382,109.04,351.806z"/>
<path style="fill:#FF0C38;" d="M186.387,488.796v-23.204V365.04c0-12.815,10.389-23.204,23.204-23.204H256V232.042H151.457
	c2.576,7.263,3.991,15.07,3.991,23.204v30.939c0,30.25-19.4,56.043-46.408,65.621c-7.263,2.576-15.069,3.991-23.204,3.991
	s-15.941-1.415-23.204-3.991v136.99c0,12.815,10.389,23.204,23.204,23.204h123.756C196.777,512,186.387,501.611,186.387,488.796z"/>
<path style="fill:#8B0023;" d="M137.649,139.225h118.352V0h-77.347c-12.815,0-23.204,10.389-23.204,23.204
	c0,38.384-31.228,69.613-69.613,69.613c-12.815,0-23.204,10.389-23.204,23.204s10.389,23.204,23.204,23.204h3.744h24.27H137.649z"/>
</svg>