<?xml version="1.0" encoding="iso-8859-1"?>
<!-- Uploaded to: SVG Repo, www.svgrepo.com, Generator: SVG Repo Mixer Tools -->
<svg height="800px" width="800px" version="1.1" id="Layer_1" xmlns="http://www.w3.org/2000/svg" xmlns:xlink="http://www.w3.org/1999/xlink" 
	 viewBox="0 0 512 512" xml:space="preserve">
<path style="fill:#ECD5BB;" d="M482.358,72.757V460.8c0,23.812-19.304,43.116-43.116,43.116h-409.6V72.757
	c0-23.812,19.304-43.116,43.116-43.116h366.484C463.054,29.642,482.358,48.946,482.358,72.757z"/>
<path style="fill:#DE9892;" d="M406.905,303.734L406.905,303.734c0,23.813-19.304,43.116-43.116,43.116H51.2
	c-23.812,0-43.116-19.304-43.116-43.116l0,0c0-110.132,89.279-199.411,199.411-199.411l0,0
	C317.626,104.325,406.905,193.603,406.905,303.734z"/>
<path style="fill:#CE8582;" d="M348.673,270.684c25.371-15.471,58.11,2.513,58.231,32.229c0.001,0.274,0.002,0.548,0.002,0.821l0,0
	c0,23.812-19.304,43.116-43.116,43.116H51.201c-23.812,0-43.116-19.304-43.116-43.116l0,0c0-0.274,0.001-0.548,0.002-0.821
	c0.12-29.715,32.86-47.7,58.231-32.229c18.364,11.2,39.942,17.653,63.029,17.653h156.295
	C308.728,288.336,330.307,281.884,348.673,270.684z"/>
<path style="fill:#EDACA9;" d="M417.684,239.831c0,8.929-7.239,16.168-16.168,16.168h-10.779c-8.929,0-16.168-7.239-16.168-16.168
	s7.239-16.168,16.168-16.168h10.779C410.445,223.663,417.684,230.902,417.684,239.831z M110.484,266.779H67.368
	c-8.929,0-16.168,7.239-16.168,16.168c0,8.929,7.239,16.168,16.168,16.168h43.116c8.929,0,16.168-7.239,16.168-16.168
	C126.653,274.018,119.413,266.779,110.484,266.779z M293.726,180.547h-21.558c-8.929,0-16.168,7.239-16.168,16.168
	s7.239,16.168,16.168,16.168h21.558c8.929,0,16.168-7.239,16.168-16.168S302.656,180.547,293.726,180.547z M110.484,126.652H88.926
	c-8.929,0-16.168,7.239-16.168,16.168s7.239,16.168,16.168,16.168h21.558c8.929,0,16.168-7.239,16.168-16.168
	S119.413,126.652,110.484,126.652z"/>
<path style="fill:#A9A632;" d="M342.232,417.684v10.779c0,23.812-19.304,43.116-43.116,43.116H169.768
	c-23.812,0-43.116-19.304-43.116-43.116v-10.779c0-59.53,48.258-107.789,107.789-107.789l0,0
	C293.973,309.894,342.232,358.153,342.232,417.684z"/>
<path style="fill:#7F932A;" d="M180.547,482.357L180.547,482.357c0,11.906-9.651,21.558-21.558,21.558H83.537
	c-11.906,0-21.558-9.651-21.558-21.558l0,0c0-29.765,24.13-53.895,53.895-53.895h10.779
	C156.418,428.463,180.547,452.592,180.547,482.357z"/>
<path style="fill:#8E9A9B;" d="M493.137,482.357c0,11.906-9.651,21.558-21.558,21.558h-86.232c-11.906,0-21.558-9.651-21.558-21.558
	c0-11.906,9.651-21.558,21.558-21.558h32.337c-11.906,0-21.558-9.651-21.558-21.558s9.651-21.558,21.558-21.558
	c-11.906,0-21.558-9.651-21.558-21.558s9.651-21.558,21.558-21.558h10.779c11.906,0,21.558,9.651,21.558,21.558
	s-9.651,21.558-21.558,21.558h43.116c11.906,0,21.558,9.651,21.558,21.558s-9.651,21.558-21.558,21.558
	C483.485,460.8,493.137,470.451,493.137,482.357z"/>
<path style="fill:#727C7C;" d="M493.137,482.357L493.137,482.357c0,11.906-9.651,21.558-21.558,21.558h-86.232
	c-11.906,0-21.558-9.651-21.558-21.558l0,0c0-11.906,9.651-21.558,21.558-21.558h86.232
	C483.485,460.8,493.137,470.451,493.137,482.357z"/>
<path style="fill:#5F6666;" d="M450.021,396.126L450.021,396.126c0,11.906-9.651,21.558-21.558,21.558h-10.779
	c-11.906,0-21.558-9.651-21.558-21.558l0,0c0-11.906,9.651-21.558,21.558-21.558h10.779
	C440.37,374.568,450.021,384.219,450.021,396.126z"/>
<path d="M14.999,138.873c-2.861-3.428-2.402-8.526,1.027-11.387l8.437-7.041c3.428-2.861,8.526-2.402,11.387,1.027
	c2.861,3.428,2.402,8.526-1.027,11.387l-8.437,7.041c-1.512,1.261-3.349,1.878-5.176,1.878
	C18.895,141.777,16.597,140.789,14.999,138.873z M156.736,62.682l9.497,5.526c1.279,0.744,2.679,1.098,4.059,1.098
	c2.784,0,5.493-1.44,6.994-4.019c2.245-3.859,0.938-8.807-2.921-11.054l-9.497-5.526c-3.86-2.245-8.807-0.938-11.054,2.921
	C151.569,55.488,152.877,60.437,156.736,62.682z M512,503.915c0,4.465-3.618,8.084-8.084,8.084H342.232
	c-4.466,0-8.084-3.62-8.084-8.084s3.618-8.084,8.084-8.084h16.717c-2.073-4.044-3.243-8.625-3.243-13.474
	c0-16.345,13.298-29.642,29.642-29.642h5.938c-2.073-4.044-3.243-8.625-3.243-13.474c0-8.486,3.583-16.149,9.317-21.558
	c-5.733-5.409-9.317-13.072-9.317-21.558c0-16.345,13.298-29.642,29.642-29.642h10.779c16.344,0,29.642,13.297,29.642,29.642
	c0,4.848-1.171,9.429-3.243,13.474h16.717c16.344,0,29.642,13.297,29.642,29.642c0,8.486-3.583,16.149-9.317,21.558
	c5.733,5.409,9.317,13.072,9.317,21.558c0,4.848-1.171,9.429-3.243,13.474h5.938C508.382,495.831,512,499.451,512,503.915z
	 M404.211,396.126c0,7.43,6.044,13.474,13.474,13.474h10.779c7.43,0,13.474-6.044,13.474-13.474s-6.044-13.474-13.474-13.474
	h-10.779C410.254,382.652,404.211,388.697,404.211,396.126z M447.506,460.8c0-4.465,3.618-8.084,8.084-8.084h15.988
	c7.43,0,13.474-6.044,13.474-13.474s-6.044-13.474-13.474-13.474h-53.895c-7.43,0-13.474,6.044-13.474,13.474
	s6.044,13.474,13.474,13.474h10.06c4.466,0,8.084,3.62,8.084,8.084s-3.618,8.084-8.084,8.084h-42.397
	c-7.43,0-13.474,6.044-13.474,13.474s6.044,13.474,13.474,13.474h86.232c7.43,0,13.474-6.044,13.474-13.474
	s-6.044-13.474-13.474-13.474h-15.988C451.125,468.884,447.506,465.264,447.506,460.8z M471.155,337.466
	c0.525,0,1.059-0.052,1.594-0.158l10.775-2.156c4.379-0.876,7.218-5.135,6.342-9.513c-0.876-4.378-5.133-7.214-9.512-6.341
	l-10.775,2.156c-4.379,0.875-7.218,5.135-6.342,9.513C464.006,334.809,467.381,337.466,471.155,337.466z M374.469,17.797
	c0.399,0,0.802-0.029,1.207-0.089l10.867-1.627c4.416-0.661,7.459-4.777,6.798-9.192c-0.661-4.416-4.788-7.457-9.191-6.798
	l-10.867,1.627c-4.416,0.661-7.459,4.776-6.798,9.192C367.086,14.918,370.534,17.797,374.469,17.797z M482.259,93.249
	c0.399,0,0.802-0.029,1.207-0.089l10.867-1.627c4.416-0.661,7.459-4.777,6.798-9.192c-0.661-4.417-4.789-7.454-9.191-6.798
	l-10.867,1.627c-4.416,0.661-7.459,4.776-6.798,9.192C474.875,90.37,478.323,93.249,482.259,93.249z M413.364,161.471
	c1.104,3.424,4.278,5.604,7.692,5.604c0.824,0,1.66-0.126,2.485-0.392c4.249-1.37,6.582-5.927,5.212-10.175l-3.374-10.458
	c-1.37-4.25-5.936-6.583-10.175-5.212c-4.249,1.371-6.582,5.927-5.212,10.175L413.364,161.471z M307.2,380.496v-1.078
	c0-4.465-3.618-8.084-8.084-8.084s-8.084,3.62-8.084,8.084v1.078c0,4.465,3.618,8.084,8.084,8.084S307.2,384.961,307.2,380.496z
	 M258.695,384.269v1.078c0,4.465,3.618,8.084,8.084,8.084s8.084-3.62,8.084-8.084v-1.078c0-4.465-3.618-8.084-8.084-8.084
	S258.695,379.804,258.695,384.269z M51.925,391.628l-8.437,7.041c-3.429,2.861-3.888,7.958-1.027,11.386
	c1.599,1.917,3.897,2.905,6.211,2.905c1.826,0,3.664-0.616,5.175-1.878l8.437-7.041c3.428-2.861,3.888-7.958,1.027-11.386
	C60.452,389.226,55.353,388.767,51.925,391.628z M0,303.735c0-57.763,24.105-112.861,66.338-152.082
	c-1.075-2.739-1.664-5.717-1.664-8.832c0-13.373,10.879-24.253,24.253-24.253h21.558c0.993,0,1.971,0.06,2.934,0.177
	c28.918-14.727,61.41-22.504,94.076-22.504c80.589,0,153.758,46.666,187.89,119.338h6.131c13.372,0,24.253,10.879,24.253,24.253
	c0,10.073-6.174,18.732-14.934,22.391c2.76,13.6,4.155,27.527,4.155,41.512c0,28.231-22.969,51.2-51.2,51.2h-16.326
	c-4.466,0-8.084-3.62-8.084-8.084c0-4.465,3.618-8.084,8.084-8.084h16.326c19.317,0,35.032-15.716,35.032-35.032
	c0-13.371-1.382-26.68-4.112-39.651h-3.972c-13.372,0-24.253-10.879-24.253-24.253c0-9.084,5.02-17.019,12.432-21.173
	c-32.205-64.843-98.52-106.25-171.422-106.25c-27.045,0-53,5.463-77.327,16.258c2.875,3.986,4.569,8.875,4.569,14.154
	c0,13.373-10.879,24.253-24.253,24.253H88.926c-4.364,0-8.463-1.159-12.005-3.184c-38.685,36.145-60.753,86.777-60.753,139.848
	c0,19.316,15.716,35.032,35.032,35.032h65.393c4.465,0,8.084,3.62,8.084,8.084s-3.62,8.084-8.084,8.084H51.2
	C22.969,354.935,0,331.966,0,303.735z M382.653,239.831c0,4.458,3.626,8.084,8.084,8.084h10.779c4.458,0,8.084-3.626,8.084-8.084
	s-3.626-8.084-8.084-8.084h-10.779C386.279,231.747,382.653,235.374,382.653,239.831z M80.842,142.821
	c0,4.458,3.626,8.084,8.084,8.084h21.558c4.458,0,8.084-3.626,8.084-8.084s-3.626-8.084-8.084-8.084H88.926
	C84.468,134.736,80.842,138.364,80.842,142.821z M321.213,503.915c0,4.465-3.618,8.084-8.084,8.084H133.839
	c-4.465,0-8.084-3.62-8.084-8.084s3.62-8.084,8.084-8.084h25.151c7.43,0,13.474-6.044,13.474-13.474
	c0-25.26-20.55-45.811-45.811-45.811h-10.779c-25.26,0-45.811,20.55-45.811,45.811c0,7.43,6.044,13.474,13.474,13.474h22.277
	c4.465,0,8.084,3.62,8.084,8.084s-3.62,8.084-8.084,8.084H8.084C3.62,512,0,508.38,0,503.915s3.62-8.084,8.084-8.084h49.053
	c-2.072-4.044-3.242-8.625-3.242-13.474c0-34.176,27.803-61.979,61.979-61.979h10.779c27.601,0,51.046,18.136,59.045,43.116h40.66
	v-24.253c0-7.43-6.044-13.474-13.474-13.474h-10.779c-4.465,0-8.084-3.62-8.084-8.084s3.62-8.084,8.084-8.084h10.779
	c11.432,0,21.375,6.506,26.318,16.01c4.778-3.298,10.567-5.231,16.798-5.231h10.779c4.466,0,8.084,3.62,8.084,8.084
	c0,4.465-3.618,8.084-8.084,8.084H256c-7.43,0-13.474,6.044-13.474,13.474v13.474h56.589c19.317,0,35.032-15.716,35.032-35.032
	v-10.779c0-54.978-44.727-99.705-99.705-99.705c-50.514,0-93.078,37.766-99.009,87.846c-0.524,4.434-4.549,7.599-8.979,7.077
	c-4.433-0.525-7.602-4.544-7.077-8.979c5.453-46.052,37.545-83.144,79.78-96.633c-1.216-6.187-6.682-10.87-13.22-10.87h-10.779
	c-4.465,0-8.084-3.62-8.084-8.084c0-4.465,3.62-8.084,8.084-8.084h10.779c4.848,0,9.429,1.171,13.474,3.242v-38.274
	c0-4.465,3.62-8.084,8.084-8.084c4.465,0,8.084,3.62,8.084,8.084v16.716c4.044-2.072,8.625-3.242,13.474-3.242h10.779
	c4.465,0,8.084,3.62,8.084,8.084c0,4.465-3.62,8.084-8.084,8.084h-10.779c-7.43,0-13.474,6.044-13.474,13.474v15.006
	c6.149-1.01,12.45-1.533,18.863-1.533c63.892,0,115.874,51.98,115.874,115.874v10.779c0,28.231-22.969,51.2-51.2,51.2h-56.589
	v16.168h70.602C317.594,495.831,321.213,499.451,321.213,503.915z M199.411,479.663h-10.837c0.039,0.894,0.058,1.791,0.058,2.695
	c0,4.848-1.171,9.429-3.242,13.474h14.021V479.663z M226.358,479.663h-10.779v16.168h10.779V479.663z M285.642,353.01v-1.078
	c0-4.465-3.618-8.084-8.084-8.084s-8.084,3.62-8.084,8.084v1.078c0,4.465,3.618,8.084,8.084,8.084S285.642,357.475,285.642,353.01z
	 M293.726,172.463c13.372,0,24.253,10.879,24.253,24.253c0,13.373-10.88,24.253-24.253,24.253h-21.558
	c-13.372,0-24.253-10.879-24.253-24.253c0-13.373,10.88-24.253,24.253-24.253H293.726z M293.726,188.631h-21.558
	c-4.458,0-8.084,3.626-8.084,8.084s3.626,8.084,8.084,8.084h21.558c4.458,0,8.084-3.626,8.084-8.084
	C301.811,192.258,298.184,188.631,293.726,188.631z M97.011,459.722v1.078c0,4.465,3.62,8.084,8.084,8.084s8.084-3.62,8.084-8.084
	v-1.078c0-4.465-3.62-8.084-8.084-8.084S97.011,455.257,97.011,459.722z M134.737,282.947c0,13.373-10.879,24.253-24.253,24.253
	H67.368c-13.373,0-24.253-10.879-24.253-24.253c0-13.373,10.879-24.253,24.253-24.253h43.116
	C123.858,258.694,134.737,269.575,134.737,282.947z M118.568,282.947c0-4.458-3.626-8.084-8.084-8.084H67.368
	c-4.458,0-8.084,3.626-8.084,8.084s3.626,8.084,8.084,8.084h43.116C114.942,291.031,118.568,287.405,118.568,282.947z"/>
</svg>