<?xml version="1.0" encoding="iso-8859-1"?>
<!-- Uploaded to: SVG Repo, www.svgrepo.com, Generator: SVG Repo Mixer Tools -->
<svg fill="#000000" height="800px" width="800px" version="1.1" id="Layer_1" xmlns="http://www.w3.org/2000/svg" xmlns:xlink="http://www.w3.org/1999/xlink" 
	 viewBox="0 0 512 512" xml:space="preserve">
<g>
	<g>
		<path d="M494.391,431.844h-50.079c-5.205-8.503-10.871-16.451-16.946-23.842c48.502-43.788,20.885-133.705-52.613-133.705
			c-37.266,0-68.432,26.591-75.534,61.794c-19.869-2.879-40.091-2.895-59.962-0.065L223.648,161.52
			c44.129,17.209,74.954,66.913,66.619,114.366c-3.078,17.522,18.808,27.922,30.512,14.737
			c56.041-63.128,28.782-143.24-30.072-170.321c27.823-0.127,55.704,9.95,75.068,30.283c12.074,12.68,33.683,1.68,29.978-15.797
			c-22.819-107.631-153.23-118.713-197.675-32.429C153.646,16.241,23.282,26.945,0.417,134.79
			c-3.67,17.312,17.782,28.601,29.978,15.795c18.335-19.252,45.509-30.294,74.555-30.294c0.17,0,0.338,0.012,0.508,0.012
			C46.607,147.386,19.354,227.5,75.389,290.623c11.633,13.104,33.603,2.854,30.512-14.738c-8.321-47.37,22.431-97.149,66.625-114.37
			l-18.516,206.862c-23.667,15.77-44.556,36.948-60.808,63.466H43.121c-9.725,0-17.609,7.884-17.609,17.609
			c0,9.725,7.884,17.609,17.609,17.609c33.729,0,434.156,0,451.269,0c9.725,0,17.609-7.884,17.609-17.609
			C512,439.728,504.116,431.844,494.391,431.844z"/>
	</g>
</g>
</svg>