<?xml version="1.0" encoding="iso-8859-1"?>
<!-- Uploaded to: SVG Repo, www.svgrepo.com, Generator: SVG Repo Mixer Tools -->
<svg version="1.1" id="Layer_1" xmlns="http://www.w3.org/2000/svg" xmlns:xlink="http://www.w3.org/1999/xlink" 
	 viewBox="0 0 512.002 512.002" xml:space="preserve">
<rect x="106.678" y="8.821" style="fill:#B27214;" width="296.673" height="218.717"/>
<rect x="139.88" y="42.027" style="fill:#F95428;" width="230.255" height="152.3"/>
<rect x="240.947" y="314.421" style="fill:#F7B239;" width="27.146" height="188.761"/>
<circle style="fill:#CCCCCC;" cx="254.52" cy="290.604" r="23.816"/>
<rect x="36.213" y="314.421" style="fill:#F7B239;" width="27.146" height="188.761"/>
<circle style="fill:#CCCCCC;" cx="49.787" cy="290.604" r="23.816"/>
<rect x="446.668" y="314.421" style="fill:#F7B239;" width="27.146" height="188.761"/>
<circle style="fill:#CCCCCC;" cx="460.241" cy="290.604" r="23.816"/>
<g>
	<path style="fill:none;stroke:#F95428;stroke-width:15;stroke-linejoin:round;stroke-miterlimit:10;" d="M241.048,344.992
		c-49.133,49.133-128.793,49.133-177.926,0"/>
	<path style="fill:none;stroke:#F95428;stroke-width:15;stroke-linejoin:round;stroke-miterlimit:10;" d="M446.276,344.992
		c-49.133,49.133-128.793,49.133-177.926,0"/>
</g>
<g>
	<path style="fill:#333333;" d="M107.666,236.357h296.671c4.872,0,8.821-3.95,8.821-8.821V8.821c0-4.872-3.95-8.821-8.821-8.821
		H107.666c-4.872,0-8.821,3.95-8.821,8.821v218.715C98.844,232.408,102.794,236.357,107.666,236.357z M144.525,203.151h222.951
		l15.564,15.564H128.961L144.525,203.151z M149.693,185.509V50.849h212.616v134.66H149.693z M379.952,190.675V45.681l15.563-15.563
		v176.122L379.952,190.675z M367.477,33.206H144.526l-15.565-15.564H383.04L367.477,33.206z M132.051,45.681v144.995l-15.564,15.564
		V30.117L132.051,45.681z"/>
	<path style="fill:#333333;" d="M497.507,494.358h-13.884V314.417c0-0.034-0.005-0.067-0.005-0.101
		c6.303-5.955,10.249-14.38,10.249-23.715c0-17.996-14.641-32.637-32.637-32.637c-17.996,0-32.637,14.641-32.637,32.637
		c0,9.335,3.945,17.76,10.249,23.715c0,0.034-0.005,0.067-0.005,0.101v26.47c-21.829,20.745-50.306,32.134-80.535,32.134
		c-30.165,0-58.585-11.343-80.397-32.004v-26.6c0-0.034-0.005-0.067-0.005-0.101c6.303-5.955,10.249-14.38,10.249-23.715
		c0-17.996-14.641-32.637-32.637-32.637s-32.637,14.641-32.637,32.637c0,9.335,3.945,17.76,10.249,23.715
		c0,0.034-0.005,0.067-0.005,0.101v26.928c-21.765,20.452-50.041,31.677-80.044,31.677c-29.94,0-58.16-11.178-79.907-31.549v-27.055
		c0-0.034-0.005-0.067-0.005-0.101c6.303-5.955,10.249-14.38,10.249-23.715c0-17.996-14.641-32.637-32.637-32.637
		s-32.637,14.641-32.637,32.637c0,9.335,3.945,17.76,10.249,23.715c0,0.034-0.005,0.067-0.005,0.101V494.36H14.494
		c-4.872,0-8.821,3.95-8.821,8.821s3.95,8.821,8.821,8.821h22.707h27.144h177.593h27.144h178.574h27.144h22.707
		c4.872,0,8.821-3.95,8.821-8.821S502.379,494.358,497.507,494.358z M461.228,275.606c8.268,0,14.995,6.726,14.995,14.995
		c0,8.268-6.726,14.995-14.995,14.995s-14.995-6.726-14.995-14.995S452.96,275.606,461.228,275.606z M358.3,390.664
		c29.424,0,57.404-9.381,80.535-26.719v130.413H277.903V364.05C301.007,381.321,328.935,390.664,358.3,390.664z M255.51,275.606
		c8.268,0,14.995,6.726,14.995,14.995c0,8.268-6.726,14.995-14.995,14.995c-8.268,0-14.995-6.726-14.995-14.995
		S247.242,275.606,255.51,275.606z M153.073,390.664c29.214,0,57.009-9.242,80.044-26.345v130.04H73.167V364.418
		C96.175,381.455,123.915,390.664,153.073,390.664z M50.773,275.606c8.268,0,14.995,6.726,14.995,14.995
		c0,8.268-6.726,14.995-14.995,14.995s-14.995-6.726-14.995-14.995S42.504,275.606,50.773,275.606z M46.022,494.358v-171.12h9.502
		v171.121h-9.502V494.358z M250.758,494.358v-171.12h9.502v171.121h-9.502V494.358z M456.478,494.358v-171.12h9.502v171.121h-9.502
		V494.358z"/>
</g>
</svg>