<?xml version="1.0" encoding="utf-8"?>

<!DOCTYPE svg PUBLIC "-//W3C//DTD SVG 1.1//EN" "http://www.w3.org/Graphics/SVG/1.1/DTD/svg11.dtd">
<!-- Uploaded to: SVG Repo, www.svgrepo.com, Generator: SVG Repo Mixer Tools -->
<svg version="1.1" id="_x32_" xmlns="http://www.w3.org/2000/svg" xmlns:xlink="http://www.w3.org/1999/xlink" 
	 viewBox="0 0 512 512"  xml:space="preserve">
<style type="text/css">
	.st0{fill:#000000;}
</style>
<g>
	<rect x="185.041" y="244.551" class="st0" width="43.107" height="46.706"/>
	<rect x="283.844" y="244.551" class="st0" width="43.115" height="46.706"/>
	<path class="st0" d="M468.398,319.001v25.252h-7.809h-26.656v-25.252h-27.48v-97.448c77.265-7.883,101.055-45.699,101.055-45.699
		l-14.371-23.56c0,0-5.39,12.184-37.725,8.94c-32.334-3.252-43.124-9.377-60.187-28.066c-16.163-18.689-19.548-38.501-16.163-48.902
		c4.491-13.81,3.806-29.792,0.892-39.004c-3.451-10.921-10.203-20.497-19.804-26.63L337.41,28.52
		c5.242,6.241,8.412,15.305,8.412,24.872c0,15.255-13.67,27.621-30.543,27.621h-44.906h-26.044h-47.614
		c-16.864,0-30.534-12.366-30.534-27.621c0-9.567,3.17-18.631,8.411-24.872l-22.742-9.889c-9.601,6.134-16.362,15.709-19.804,26.63
		c-2.914,9.213-3.6,25.194,0.891,39.004c3.384,10.401,0,30.213-16.163,48.902c-17.071,18.69-27.852,24.814-60.195,28.066
		c-32.326,3.244-37.716-8.94-37.716-8.94L4.49,175.854c0,0,23.791,37.816,101.056,45.699v97.448H78.058v25.252H51.411h-7.809
		v-25.252H0v25.252v149.116h191.578v-47.77c0-35.579,28.844-64.414,64.421-64.414c35.579,0,64.414,28.835,64.414,64.414v47.77H512
		V344.253v-25.252H468.398z M387.591,344.253h-31.723v-25.252h-43.611v25.252h-34.456v-25.252h-43.61v25.252h-34.456v-25.252
		h-43.602v25.252H124.41V222.816c3.351,0.116,6.785,0.173,10.326,0.173h242.528c3.534,0,6.968-0.057,10.327-0.173V344.253z"/>
</g>
</svg>