<?xml version="1.0" encoding="iso-8859-1"?>
<!-- Uploaded to: SVG Repo, www.svgrepo.com, Generator: SVG Repo Mixer Tools -->
<svg height="800px" width="800px" version="1.1" id="Layer_1" xmlns="http://www.w3.org/2000/svg" xmlns:xlink="http://www.w3.org/1999/xlink" 
	 viewBox="0 0 512 512" xml:space="preserve">
<g transform="translate(1 1)">
	<path style="fill:#FFFFFF;" d="M459.8,58.733V23.747c0-8.533-6.827-16.213-16.213-16.213H66.413
		c-9.387,0-16.213,6.827-16.213,16.213v34.987L7.533,101.4v34.133h494.933V101.4L459.8,58.733L459.8,58.733z"/>
	<g>
		<path style="fill:#0096E6;" d="M511,144.067H-1v-46.08L41.667,55.32V23.747C41.667,10.093,52.76-1,66.413-1h377.173
			c13.653,0,24.747,11.093,24.747,24.747V55.32L511,97.987V144.067z M16.067,127h477.867v-22.187l-42.667-42.667v-38.4
			c0-4.267-3.413-7.68-7.68-7.68H66.413c-4.267,0-7.68,3.413-7.68,7.68v38.4l-42.667,42.667V127z"/>
		<path style="fill:#0096E6;" d="M417.133,144.067c-5.12,0-8.533-3.413-8.533-8.533V103.96L383,61.293V7.533
			C383,2.413,386.413-1,391.533-1s8.533,3.413,8.533,8.533v48.64l25.6,42.667v36.693
			C425.667,140.653,422.253,144.067,417.133,144.067z M331.8,144.067c-5.12,0-8.533-3.413-8.533-8.533v-33.28l-8.533-43.52v-51.2
			c0-5.12,3.413-8.533,8.533-8.533c5.12,0,8.533,3.413,8.533,8.533V57.88l8.533,43.52v34.133
			C340.333,140.653,336.92,144.067,331.8,144.067z M255,144.067c-5.12,0-8.533-3.413-8.533-8.533v-128C246.467,2.413,249.88-1,255-1
			s8.533,3.413,8.533,8.533v128C263.533,140.653,260.12,144.067,255,144.067z M178.2,144.067c-5.12,0-8.533-3.413-8.533-8.533
			v-35.84L178.2,57.88V7.533c0-5.12,3.413-8.533,8.533-8.533c5.12,0,8.533,3.413,8.533,8.533V60.44l-8.533,41.813v33.28
			C186.733,140.653,183.32,144.067,178.2,144.067z M92.867,144.067c-5.12,0-8.533-3.413-8.533-8.533V98.84l25.6-42.667V7.533
			c0-5.12,3.413-8.533,8.533-8.533S127,2.413,127,7.533v53.76l-25.6,42.667v31.573C101.4,140.653,97.987,144.067,92.867,144.067z"/>
	</g>
	<path style="fill:#D0E8F9;" d="M54.467,186.733h-8.533c-21.333,0-38.4-17.067-38.4-38.4v-12.8h85.333v12.8
		C92.867,169.667,75.8,186.733,54.467,186.733L54.467,186.733z"/>
	<path style="fill:#0096E6;" d="M54.467,195.267h-8.533C20.333,195.267-1,173.933-1,148.333V127h102.4v21.333
		C101.4,173.933,80.067,195.267,54.467,195.267z M16.067,144.067v4.267c0,16.213,13.653,29.867,29.867,29.867h8.533
		c16.213,0,29.867-13.653,29.867-29.867v-4.267H16.067z"/>
	<path style="fill:#D0E8F9;" d="M139.8,186.733h-8.533c-21.333,0-38.4-17.067-38.4-38.4v-12.8H178.2v12.8
		C178.2,169.667,161.133,186.733,139.8,186.733L139.8,186.733z"/>
	<path style="fill:#0096E6;" d="M139.8,195.267h-8.533c-25.6,0-46.933-21.333-46.933-46.933V127h102.4v21.333
		C186.733,173.933,165.4,195.267,139.8,195.267z M101.4,144.067v4.267c0,16.213,13.653,29.867,29.867,29.867h8.533
		c16.213,0,29.867-13.653,29.867-29.867v-4.267H101.4z"/>
	<path style="fill:#D0E8F9;" d="M378.733,186.733H370.2c-21.333,0-38.4-17.067-38.4-38.4v-12.8h85.333v12.8
		C417.133,169.667,400.067,186.733,378.733,186.733L378.733,186.733z"/>
	<path style="fill:#0096E6;" d="M378.733,195.267H370.2c-25.6,0-46.933-21.333-46.933-46.933V127h102.4v21.333
		C425.667,173.933,404.333,195.267,378.733,195.267z M340.333,144.067v4.267c0,16.213,13.653,29.867,29.867,29.867h8.533
		c16.213,0,29.867-13.653,29.867-29.867v-4.267H340.333z"/>
	<path style="fill:#D0E8F9;" d="M464.067,186.733h-8.533c-21.333,0-38.4-17.067-38.4-38.4v-12.8h85.333v12.8
		C502.467,169.667,485.4,186.733,464.067,186.733L464.067,186.733z"/>
	<path style="fill:#0096E6;" d="M464.067,195.267h-8.533c-25.6,0-46.933-21.333-46.933-46.933V127H511v21.333
		C511,173.933,489.667,195.267,464.067,195.267z M425.667,144.067v4.267c0,16.213,13.653,29.867,29.867,29.867h8.533
		c16.213,0,29.867-13.653,29.867-29.867v-4.267H425.667z"/>
	<path style="fill:#D0E8F9;" d="M216.6,186.733L216.6,186.733c-21.333,0-38.4-17.067-38.4-38.4v-12.8H255v12.8
		C255,169.667,237.933,186.733,216.6,186.733L216.6,186.733z"/>
	<path style="fill:#0096E6;" d="M216.6,195.267c-25.6,0-46.933-21.333-46.933-46.933V127h93.867v21.333
		C263.533,173.933,242.2,195.267,216.6,195.267z M186.733,144.067v4.267c0,16.213,13.653,29.867,29.867,29.867
		s29.867-13.653,29.867-29.867v-4.267H186.733z"/>
	<path style="fill:#D0E8F9;" d="M293.4,186.733L293.4,186.733c-21.333,0-38.4-17.067-38.4-38.4v-12.8h76.8v12.8
		C331.8,169.667,314.733,186.733,293.4,186.733L293.4,186.733z"/>
	<path style="fill:#0096E6;" d="M293.4,195.267c-25.6,0-46.933-21.333-46.933-46.933V127h93.867v21.333
		C340.333,173.933,319,195.267,293.4,195.267z M263.533,144.067v4.267c0,16.213,13.653,29.867,29.867,29.867
		s29.867-13.653,29.867-29.867v-4.267H263.533z"/>
	<polygon style="fill:#FFFFFF;" points="7.533,374.467 502.467,374.467 502.467,476.867 7.533,476.867 	"/>
	<g>
		<path style="fill:#0096E6;" d="M511,485.4H-1V365.933h512V485.4z M16.067,468.333h477.867V383H16.067V468.333z"/>
		<path style="fill:#0096E6;" d="M511,383h-51.2V179.053l7.68-0.853c11.093-1.707,20.48-8.533,24.747-19.627l1.707-5.973H511V383z
			 M476.867,365.933h17.067v-181.76c-5.12,4.267-11.093,6.827-17.067,8.533V365.933z M50.2,383H-1V152.6h17.067l1.707,5.973
			c3.413,11.093,13.653,17.92,24.747,19.627l7.68,0.853V383z M16.067,365.933h17.067V193.56c-5.973-1.707-11.947-5.12-17.067-8.533
			V365.933z M203.8,340.333H84.333v-17.067H203.8V340.333z"/>
	</g>
	<path style="fill:#D0E8F9;" d="M144.067,331.8L75.8,263.533l9.387-9.387c32.427-32.427,85.333-32.427,116.907,0l10.24,9.387
		L144.067,331.8L144.067,331.8L144.067,331.8z"/>
	<g>
		<path style="fill:#0096E6;" d="M144.067,343.747l-80.213-80.213l15.36-15.36c35.84-35.84,93.867-35.84,129.707,0l15.36,15.36
			L144.067,343.747z M87.747,263.533l56.32,56.32l56.32-56.32l-3.413-3.413c-29.013-29.013-75.947-29.013-104.96,0L87.747,263.533z"
			/>
		<path style="fill:#0096E6;" d="M144.067,340.333c-5.12,0-8.533-3.413-8.533-8.533v-68.267c0-5.12,3.413-8.533,8.533-8.533
			c5.12,0,8.533,3.413,8.533,8.533V331.8C152.6,336.92,149.187,340.333,144.067,340.333z"/>
	</g>
	<polygon style="fill:#D0E8F9;" points="127,331.8 161.133,331.8 161.133,374.467 127,374.467 	"/>
	<path style="fill:#0096E6;" d="M169.667,383h-51.2v-59.733h51.2V383z M135.533,365.933H152.6v-25.6h-17.067V365.933z"/>
	<path style="fill:#D0E8F9;" d="M357.4,348.867c0,14.507-11.093,25.6-25.6,25.6s-25.6-11.093-25.6-25.6
		c0-14.507,11.093-25.6,25.6-25.6S357.4,334.36,357.4,348.867L357.4,348.867z"/>
	<path style="fill:#0096E6;" d="M331.8,383c-18.773,0-34.133-15.36-34.133-34.133c0-18.773,15.36-34.133,34.133-34.133
		s34.133,15.36,34.133,34.133C365.933,367.64,350.573,383,331.8,383z M331.8,331.8c-9.387,0-17.067,7.68-17.067,17.067
		c0,9.387,7.68,17.067,17.067,17.067s17.067-7.68,17.067-17.067C348.867,339.48,341.187,331.8,331.8,331.8z"/>
	<path style="fill:#D0E8F9;" d="M408.6,348.867c0,14.507-11.093,25.6-25.6,25.6c-14.507,0-25.6-11.093-25.6-25.6
		c0-14.507,11.093-25.6,25.6-25.6C397.507,323.267,408.6,334.36,408.6,348.867L408.6,348.867z"/>
	<path style="fill:#0096E6;" d="M383,383c-18.773,0-34.133-15.36-34.133-34.133c0-18.773,15.36-34.133,34.133-34.133
		c18.773,0,34.133,15.36,34.133,34.133C417.133,367.64,401.773,383,383,383z M383,331.8c-9.387,0-17.067,7.68-17.067,17.067
		c0,9.387,7.68,17.067,17.067,17.067s17.067-7.68,17.067-17.067C400.067,339.48,392.387,331.8,383,331.8z"/>
	<path style="fill:#D0E8F9;" d="M383,297.667c0,14.507-11.093,25.6-25.6,25.6s-25.6-11.093-25.6-25.6s11.093-25.6,25.6-25.6
		S383,283.16,383,297.667L383,297.667z"/>
	<path style="fill:#0096E6;" d="M357.4,331.8c-18.773,0-34.133-15.36-34.133-34.133s15.36-34.133,34.133-34.133
		s34.133,15.36,34.133,34.133S376.173,331.8,357.4,331.8z M357.4,280.6c-9.387,0-17.067,7.68-17.067,17.067
		s7.68,17.067,17.067,17.067s17.067-7.68,17.067-17.067S366.787,280.6,357.4,280.6z"/>
	<path style="fill:#FFFFFF;" d="M50.2,374.467v102.4"/>
	<path style="fill:#0096E6;" d="M50.2,485.4c-5.12,0-8.533-3.413-8.533-8.533v-102.4c0-5.12,3.413-8.533,8.533-8.533
		s8.533,3.413,8.533,8.533v102.4C58.733,481.987,55.32,485.4,50.2,485.4z"/>
	<path style="fill:#FFFFFF;" d="M84.333,374.467v102.4"/>
	<path style="fill:#0096E6;" d="M84.333,485.4c-5.12,0-8.533-3.413-8.533-8.533v-102.4c0-5.12,3.413-8.533,8.533-8.533
		s8.533,3.413,8.533,8.533v102.4C92.867,481.987,89.453,485.4,84.333,485.4z"/>
	<path style="fill:#FFFFFF;" d="M118.467,374.467v102.4"/>
	<path style="fill:#0096E6;" d="M118.467,485.4c-5.12,0-8.533-3.413-8.533-8.533v-102.4c0-5.12,3.413-8.533,8.533-8.533
		s8.533,3.413,8.533,8.533v102.4C127,481.987,123.587,485.4,118.467,485.4z"/>
	<path style="fill:#FFFFFF;" d="M152.6,374.467v102.4"/>
	<path style="fill:#0096E6;" d="M152.6,485.4c-5.12,0-8.533-3.413-8.533-8.533v-102.4c0-5.12,3.413-8.533,8.533-8.533
		c5.12,0,8.533,3.413,8.533,8.533v102.4C161.133,481.987,157.72,485.4,152.6,485.4z"/>
	<path style="fill:#FFFFFF;" d="M186.733,374.467v102.4"/>
	<path style="fill:#0096E6;" d="M186.733,485.4c-5.12,0-8.533-3.413-8.533-8.533v-102.4c0-5.12,3.413-8.533,8.533-8.533
		c5.12,0,8.533,3.413,8.533,8.533v102.4C195.267,481.987,191.853,485.4,186.733,485.4z"/>
	<path style="fill:#FFFFFF;" d="M220.867,374.467v102.4"/>
	<path style="fill:#0096E6;" d="M220.867,485.4c-5.12,0-8.533-3.413-8.533-8.533v-102.4c0-5.12,3.413-8.533,8.533-8.533
		c5.12,0,8.533,3.413,8.533,8.533v102.4C229.4,481.987,225.987,485.4,220.867,485.4z"/>
	<path style="fill:#FFFFFF;" d="M255,374.467v102.4"/>
	<path style="fill:#0096E6;" d="M255,485.4c-5.12,0-8.533-3.413-8.533-8.533v-102.4c0-5.12,3.413-8.533,8.533-8.533
		s8.533,3.413,8.533,8.533v102.4C263.533,481.987,260.12,485.4,255,485.4z"/>
	<path style="fill:#FFFFFF;" d="M289.133,374.467v102.4"/>
	<path style="fill:#0096E6;" d="M289.133,485.4c-5.12,0-8.533-3.413-8.533-8.533v-102.4c0-5.12,3.413-8.533,8.533-8.533
		c5.12,0,8.533,3.413,8.533,8.533v102.4C297.667,481.987,294.253,485.4,289.133,485.4z"/>
	<path style="fill:#FFFFFF;" d="M323.267,374.467v102.4"/>
	<path style="fill:#0096E6;" d="M323.267,485.4c-5.12,0-8.533-3.413-8.533-8.533v-102.4c0-5.12,3.413-8.533,8.533-8.533
		c5.12,0,8.533,3.413,8.533,8.533v102.4C331.8,481.987,328.387,485.4,323.267,485.4z"/>
	<path style="fill:#FFFFFF;" d="M357.4,374.467v102.4"/>
	<path style="fill:#0096E6;" d="M357.4,485.4c-5.12,0-8.533-3.413-8.533-8.533v-102.4c0-5.12,3.413-8.533,8.533-8.533
		s8.533,3.413,8.533,8.533v102.4C365.933,481.987,362.52,485.4,357.4,485.4z"/>
	<path style="fill:#FFFFFF;" d="M391.533,374.467v102.4"/>
	<path style="fill:#0096E6;" d="M391.533,485.4c-5.12,0-8.533-3.413-8.533-8.533v-102.4c0-5.12,3.413-8.533,8.533-8.533
		s8.533,3.413,8.533,8.533v102.4C400.067,481.987,396.653,485.4,391.533,485.4z"/>
	<path style="fill:#FFFFFF;" d="M425.667,374.467v102.4"/>
	<path style="fill:#0096E6;" d="M425.667,485.4c-5.12,0-8.533-3.413-8.533-8.533v-102.4c0-5.12,3.413-8.533,8.533-8.533
		s8.533,3.413,8.533,8.533v102.4C434.2,481.987,430.787,485.4,425.667,485.4z"/>
	<path style="fill:#FFFFFF;" d="M459.8,374.467v102.4"/>
	<path style="fill:#0096E6;" d="M459.8,485.4c-5.12,0-8.533-3.413-8.533-8.533v-102.4c0-5.12,3.413-8.533,8.533-8.533
		s8.533,3.413,8.533,8.533v102.4C468.333,481.987,464.92,485.4,459.8,485.4z"/>
	<polygon style="fill:#FFFFFF;" points="7.533,476.867 41.667,476.867 41.667,502.467 7.533,502.467 	"/>
	<path style="fill:#0096E6;" d="M50.2,511H-1v-42.667h51.2V511z M16.067,493.933h17.067V485.4H16.067V493.933z"/>
	<polygon style="fill:#FFFFFF;" points="468.333,476.867 502.467,476.867 502.467,502.467 468.333,502.467 	"/>
	<path style="fill:#0096E6;" d="M511,511h-51.2v-42.667H511V511z M476.867,493.933h17.067V485.4h-17.067V493.933z"/>
</g>
</svg>