<?xml version="1.0" encoding="iso-8859-1"?>
<!-- Uploaded to: SVG Repo, www.svgrepo.com, Generator: SVG Repo Mixer Tools -->
<svg fill="#000000" version="1.1" id="Layer_1" xmlns="http://www.w3.org/2000/svg" xmlns:xlink="http://www.w3.org/1999/xlink" 
	 viewBox="0 0 455 455" xml:space="preserve">
<g>
	<polygon points="413.698,90.221 41.302,90.221 18.974,137.595 436.027,137.595 	"/>
	<path d="M321.723,167.595c6.728,27.226,31.323,47.474,60.563,47.474c29.24,0,53.834-20.249,60.562-47.474H321.723z"/>
	<path d="M227.5,215.069c29.24,0,53.834-20.249,60.562-47.474H166.938C173.665,194.82,198.26,215.069,227.5,215.069z"/>
	<path d="M133.277,167.595H12.151c6.728,27.226,31.323,47.474,60.563,47.474S126.549,194.82,133.277,167.595z"/>
	<path d="M304.893,203.057c-16.509,25.275-45.035,42.012-77.393,42.012s-60.885-16.737-77.393-42.012
		c-16.508,25.275-45.036,42.012-77.393,42.012c-9.862,0-19.363-1.563-28.281-4.44V455h103.398V283.793h159.338V455h103.398V240.628
		c-8.918,2.877-18.419,4.44-28.281,4.44C349.929,245.069,321.402,228.332,304.893,203.057z"/>
	<rect x="89.916" width="275.169" height="60.221"/>
	<rect x="177.831" y="313.793" width="99.338" height="141.207"/>
</g>
</svg>