<?xml version="1.0" encoding="iso-8859-1"?>
<!-- Uploaded to: SVG Repo, www.svgrepo.com, Generator: SVG Repo Mixer Tools -->
<svg fill="#000000" height="800px" width="800px" version="1.1" id="Layer_1" xmlns="http://www.w3.org/2000/svg" xmlns:xlink="http://www.w3.org/1999/xlink" 
	 viewBox="0 0 512 512" xml:space="preserve">
<g>
	<g>
		<path d="M495.304,211.479h-244.87V100.174h233.303c8.572,0,16.091-6.282,17.028-14.802c1.106-10.072-6.746-18.589-16.592-18.589
			H250.435V33.391h233.303c8.572,0,16.091-6.282,17.028-14.802C501.872,8.517,494.02,0,484.174,0H67.219
			C58.647,0,51.128,6.282,50.19,14.802c-1.106,10.072,6.746,18.589,16.592,18.589h16.696v33.391H67.219
			c-8.572,0-16.091,6.282-17.028,14.802c-1.106,10.072,6.746,18.589,16.592,18.589h16.696v111.304H16.696
			c-9.246,0-16.7,7.565-16.696,16.81c0.043,92.348,52.115,177.985,133.565,221.125v12.499c0,27.662,22.424,50.087,50.087,50.087
			h144.696c27.662,0,50.087-22.424,50.087-50.087v-12.499C459.885,406.274,511.957,320.637,512,228.29
			C512.004,219.044,504.55,211.479,495.304,211.479z M150.261,211.478H116.87V33.391h33.391V211.478z M217.043,211.478h-33.391
			V33.391h33.391V211.478z"/>
	</g>
</g>
</svg>