<?xml version="1.0" encoding="iso-8859-1"?>
<!-- Uploaded to: SVG Repo, www.svgrepo.com, Generator: SVG Repo Mixer Tools -->
<svg fill="#000000" version="1.1" id="Layer_1" xmlns="http://www.w3.org/2000/svg" xmlns:xlink="http://www.w3.org/1999/xlink" 
	 viewBox="0 0 512 512" xml:space="preserve">
<g>
	<g>
		<path d="M473.408,395.508c-10.028-32.403-37.92-57.019-72.11-62.323V55.351h-12.991V41.821h-24.755V0.307H348.56v55.044h-10.839
			V41.821h-23.909v-8.61h19.834V21.064h-19.834v-7.687h23.217V0.307h-38.208v55.044h-24.984V13.377h15.684V0.307h-46.434v13.07
			h15.76v41.974H256h-46.203h-37.823V0.307h-14.991V20.45h-18.296V0.307h-14.993v55.044h-12.991v277.833
			c-34.191,5.304-62.083,29.92-72.11,62.323c-18.894,10.705-31.673,31-31.673,54.222c0,34.336,27.934,62.27,62.27,62.27h373.622
			c34.336,0,62.27-27.934,62.27-62.27C505.081,426.507,492.302,406.213,473.408,395.508z M110.703,470.487
			c-16.507,0-41.513,0-41.513,0c-11.463,0-20.757-9.294-20.757-20.757s9.294-20.757,20.757-20.757h7.418
			c-0.324-2.261-0.5-4.569-0.5-6.919c0-21.939,14.591-40.459,34.595-46.415V470.487z M138.686,33.518h18.296v21.833h-18.296V33.518z
			 M186.811,470.487h-34.595v-41.514h34.595V470.487z M283.676,470.487H256h-27.676v-41.514h55.351V470.487z M359.784,470.487
			h-34.595v-41.514h34.595V470.487z M359.784,415.135l-41.514-27.676H193.73l-41.513,27.676V96.865H256h103.784V415.135z
			 M442.811,470.487c0,0-25.006,0-41.514,0v-94.847c20.004,5.956,34.595,24.476,34.595,46.415c0,2.35-0.176,4.658-0.5,6.919h7.418
			c11.463,0,20.757,9.294,20.757,20.757S454.274,470.487,442.811,470.487z"/>
	</g>
</g>
<g>
	<g>
		<path d="M235.667,17.603c-1.308-3.331-3.166-6.305-5.574-8.917c-2.409-2.614-5.304-4.715-8.687-6.303S214.255,0,210.104,0
			c-4.049,0-7.777,0.757-11.185,2.268c-3.41,1.513-6.356,3.537-8.841,6.075c-2.487,2.536-4.42,5.47-5.804,8.801
			c-1.384,3.332-2.076,6.792-2.076,10.378c0,3.537,0.666,6.97,1.998,10.301c1.333,3.332,3.202,6.293,5.613,8.88
			c2.409,2.588,5.304,4.677,8.687,6.264c3.382,1.589,7.15,2.384,11.301,2.384c4.048,0,7.777-0.769,11.185-2.307
			c3.408-1.537,6.342-3.574,8.802-6.111c2.46-2.534,4.382-5.459,5.766-8.765c1.384-3.307,2.076-6.751,2.076-10.341
			C237.628,24.344,236.973,20.937,235.667,17.603z M221.674,32.825c-0.489,1.742-1.23,3.293-2.229,4.65
			c-0.999,1.362-2.294,2.463-3.883,3.31c-1.589,0.848-3.459,1.268-5.611,1.268c-2.153,0-4.012-0.41-5.574-1.23
			c-1.564-0.819-2.856-1.896-3.883-3.228c-1.027-1.333-1.795-2.856-2.307-4.576c-0.513-1.716-0.769-3.497-0.769-5.341
			c0-1.795,0.242-3.548,0.731-5.268c0.487-1.714,1.241-3.253,2.268-4.612c1.024-1.356,2.318-2.448,3.883-3.267
			c1.562-0.819,3.421-1.23,5.573-1.23c2.102,0,3.934,0.399,5.498,1.191c1.562,0.796,2.869,1.846,3.92,3.152
			c1.05,1.305,1.832,2.817,2.346,4.535c0.512,1.719,0.769,3.498,0.769,5.343C222.404,29.315,222.161,31.081,221.674,32.825z"/>
	</g>
</g>
<g>
	<g>
		<rect x="193.73" y="138.378" width="41.513" height="83.027"/>
	</g>
</g>
<g>
	<g>
		<rect x="276.757" y="138.378" width="41.513" height="83.027"/>
	</g>
</g>
<g>
	<g>
		<rect x="193.73" y="262.919" width="41.513" height="83.027"/>
	</g>
</g>
<g>
	<g>
		<rect x="276.757" y="262.919" width="41.513" height="83.027"/>
	</g>
</g>
</svg>