<?xml version="1.0" encoding="iso-8859-1"?>
<!-- Uploaded to: SVG Repo, www.svgrepo.com, Generator: SVG Repo Mixer Tools -->
<svg fill="#000000" height="800px" width="800px" version="1.1" id="Layer_1" xmlns="http://www.w3.org/2000/svg" xmlns:xlink="http://www.w3.org/1999/xlink" 
	 viewBox="0 0 512.052 512.052" xml:space="preserve">
<g transform="translate(-1 -1)">
	<g>
		<g>
			<path d="M504.478,18.093c4.71,0,8.533-3.814,8.533-8.533s-3.823-8.533-8.533-8.533H265.545v59.733
				c0,4.719-3.823,8.533-8.533,8.533c-4.71,0-8.533-3.814-8.533-8.533V1.026H9.545c-4.71,0-8.533,3.814-8.533,8.533
				s3.823,8.533,8.533,8.533H154.16L129.02,504.049c-0.119,2.338,0.725,4.625,2.338,6.315c1.613,1.707,3.849,2.662,6.187,2.662
				h110.933v-59.733c0-4.719,3.823-8.533,8.533-8.533c4.71,0,8.533,3.814,8.533,8.533v59.733h110.933
				c2.338,0,4.574-0.956,6.187-2.662c1.613-1.69,2.458-3.977,2.338-6.315L359.864,18.093H504.478z M265.545,393.559
				c0,4.719-3.823,8.533-8.533,8.533c-4.71,0-8.533-3.814-8.533-8.533v-51.2c0-4.719,3.823-8.533,8.533-8.533
				c4.71,0,8.533,3.814,8.533,8.533V393.559z M265.545,282.626c0,4.719-3.823,8.533-8.533,8.533c-4.71,0-8.533-3.814-8.533-8.533
				v-51.2c0-4.719,3.823-8.533,8.533-8.533c4.71,0,8.533,3.814,8.533,8.533V282.626z M265.545,171.693
				c0,4.719-3.823,8.533-8.533,8.533c-4.71,0-8.533-3.814-8.533-8.533v-51.2c0-4.719,3.823-8.533,8.533-8.533
				c4.71,0,8.533,3.814,8.533,8.533V171.693z"/>
			<path d="M69.912,68.901c-8.815-10.351-26.411-10.351-35.226,0L13.703,93.52c-12.868,15.095-16.247,36.062-8.815,54.716
				c6.801,17.067,21.214,28.535,38.793,31.249v34.876c0,4.719,3.823,8.533,8.533,8.533s8.533-3.814,8.533-8.533v-34.833
				c16.521-2.731,30.626-13.542,37.82-29.474c8.661-19.157,5.658-40.9-7.842-56.73L69.912,68.901z"/>
			<path d="M69.912,333.434c-8.815-10.351-26.411-10.351-35.226,0l-20.983,24.619c-12.868,15.095-16.247,36.062-8.815,54.716
				c6.801,17.067,21.214,28.535,38.793,31.249v34.876c0,4.719,3.823,8.533,8.533,8.533s8.533-3.814,8.533-8.533v-34.833
				c16.521-2.731,30.626-13.542,37.82-29.474c8.661-19.157,5.658-40.9-7.842-56.73L69.912,333.434z"/>
			<path d="M461.812,222.893c4.71,0,8.533-3.814,8.533-8.533v-34.825c16.529-2.739,30.635-13.551,37.828-29.483
				c8.653-19.157,5.649-40.9-7.842-56.73L479.51,68.9c-8.815-10.351-26.411-10.351-35.226,0l-20.983,24.619
				c-12.868,15.096-16.247,36.062-8.806,54.716c6.792,17.067,21.205,28.544,38.784,31.258v34.867
				C453.278,219.078,457.101,222.893,461.812,222.893z"/>
			<path d="M479.512,333.434c-8.815-10.351-26.411-10.351-35.226,0l-20.983,24.619c-12.868,15.095-16.247,36.062-8.815,54.716
				c6.801,17.067,21.214,28.535,38.792,31.249v34.876c0,4.719,3.823,8.533,8.533,8.533c4.71,0,8.533-3.814,8.533-8.533v-34.833
				c16.521-2.731,30.626-13.542,37.82-29.474c8.661-19.157,5.658-40.9-7.842-56.73L479.512,333.434z"/>
		</g>
	</g>
</g>
</svg>