<?xml version="1.0" encoding="utf-8"?>
<!-- Uploaded to: SVG Repo, www.svgrepo.com, Generator: SVG Repo Mixer Tools -->
<svg width="800px" height="800px" viewBox="0 0 47.918 47.918" xmlns="http://www.w3.org/2000/svg">
  <g id="Group_20" data-name="Group 20" transform="translate(-489.009 -281.42)">
    <path id="Path_39" data-name="Path 39" d="M504.4,319.666v4.415s.319-1.846,2.863-1.846,2.862,1.846,2.862,1.846v-4.415Z" fill="none" stroke="#000000" stroke-linecap="round" stroke-linejoin="round" stroke-width="2"/>
    <path id="Path_40" data-name="Path 40" d="M515.852,319.666v4.415s.045-1.854,2.589-1.854a3.075,3.075,0,0,1,3.135,1.854v-4.415" fill="none" stroke="#000000" stroke-linecap="round" stroke-linejoin="round" stroke-width="2"/>
    <path id="Path_41" data-name="Path 41" d="M510.129,296.816v5.724H504.4v-5.724Z" fill="none" stroke="#000000" stroke-linecap="round" stroke-linejoin="round" stroke-width="2"/>
    <path id="Path_42" data-name="Path 42" d="M498.681,302.54h-4.415a3.075,3.075,0,0,0,1.854-3.135c0-2.544-1.854-2.589-1.854-2.589h4.415Z" fill="none" stroke="#000000" stroke-linecap="round" stroke-linejoin="round" stroke-width="2"/>
    <path id="Path_43" data-name="Path 43" d="M521.576,291.092v-4.414s-.045,1.854-2.589,1.854a3.076,3.076,0,0,1-3.135-1.854v4.414h5.679v-3.545a2.871,2.871,0,0,1,2.862-2.862h0a2.871,2.871,0,0,1,2.862,2.862v3.544H530.8a2.87,2.87,0,0,1,2.862,2.862h0a2.87,2.87,0,0,1-2.862,2.862h.871a3.076,3.076,0,0,0-1.855,3.135c0,2.544,1.855,2.589,1.855,2.589h-4.415v-.045h5.811a2.871,2.871,0,0,1,2.862,2.862h0a2.871,2.871,0,0,1-2.862,2.862h-5.81v5.769h4.415s-1.855-.045-1.855-2.589a3.075,3.075,0,0,1,1.855-3.135h-4.416v5.679H530.8a2.869,2.869,0,0,1,2.862,2.861h0a2.869,2.869,0,0,1-2.862,2.862h-3.544v3.544a2.871,2.871,0,0,1-2.862,2.862h0a2.871,2.871,0,0,1-2.862-2.862v-3.545h-5.724v5.811a2.87,2.87,0,0,1-2.862,2.861h0a2.869,2.869,0,0,1-2.861-2.861v-5.811H504.4v3.545a2.871,2.871,0,0,1-2.862,2.862h0a2.871,2.871,0,0,1-2.862-2.862v-3.545h-3.545a2.87,2.87,0,0,1-2.862-2.862h0a2.87,2.87,0,0,1,2.862-2.861h3.545v.045h-4.415s1.844-.319,1.844-2.862-1.844-2.862-1.844-2.862h4.415v-.045h-5.809a2.871,2.871,0,0,1-2.862-2.862h0a2.871,2.871,0,0,1,2.862-2.862h5.81v-5.679h-3.545a2.871,2.871,0,0,1-2.862-2.862h0a2.871,2.871,0,0,1,2.862-2.862h3.545v-3.544a2.871,2.871,0,0,1,2.862-2.862h0a2.871,2.871,0,0,1,2.862,2.862v3.544h5.679v-5.81a2.87,2.87,0,0,1,2.861-2.862h0a2.871,2.871,0,0,1,2.862,2.862v5.81" fill="none" stroke="#000000" stroke-linecap="round" stroke-linejoin="round" stroke-width="2"/>
    <path id="Path_44" data-name="Path 44" d="M510.129,291.092v-4.414s-.045,1.854-2.589,1.854a3.075,3.075,0,0,1-3.135-1.854v4.414" fill="none" stroke="#000000" stroke-linecap="round" stroke-linejoin="round" stroke-width="2"/>
    <path id="Path_45" data-name="Path 45" d="M504.405,313.988h5.723v-5.769H504.4v5.724h5.679" fill="none" stroke="#000000" stroke-linecap="round" stroke-linejoin="round" stroke-width="2"/>
    <path id="Path_46" data-name="Path 46" d="M521.576,296.816v5.724h-5.724v-5.724Z" fill="none" stroke="#000000" stroke-linecap="round" stroke-linejoin="round" stroke-width="2"/>
    <path id="Path_47" data-name="Path 47" d="M515.854,313.988h5.723v-5.769h-5.724v5.724h5.679" fill="none" stroke="#000000" stroke-linecap="round" stroke-linejoin="round" stroke-width="2"/>
  </g>
</svg>